<svg width="36" height="36" viewBox="0 0 36 36" fill="none" xmlns="http://www.w3.org/2000/svg">
<path d="M18 36C27.9411 36 36 27.9411 36 18C36 8.05887 27.9411 0 18 0C8.05887 0 0 8.05887 0 18C0 27.9411 8.05887 36 18 36Z" fill="#3B5998"/>
<path fill-rule="evenodd" clip-rule="evenodd" d="M16.227 26.9999V16.8049H14.34V14.3199H16.227V13.2419C16.227 11.8199 16.635 10.7169 17.451 9.93191C18.268 9.14591 19.411 8.75391 20.879 8.75391C21.348 8.75391 21.922 8.83191 22.602 8.98791L22.566 11.6129C22.2281 11.5367 21.8823 11.5015 21.536 11.5079C20.262 11.5079 19.625 12.1049 19.625 13.3009V14.3209H22.145V16.8049H19.625V26.9999H16.227Z" fill="white"/>
</svg>
