<svg width="36" height="36" viewBox="0 0 36 36" fill="none" xmlns="http://www.w3.org/2000/svg">
<path fill-rule="evenodd" clip-rule="evenodd" d="M0 18C0 8.059 8.059 0 18 0C27.941 0 36 8.059 36 18C36 27.941 27.941 36 18 36C8.059 36 0 27.941 0 18Z" fill="#0077B5"/>
<path fill-rule="evenodd" clip-rule="evenodd" d="M12.72 14.908V27.165H8.64099V14.908H12.721H12.72ZM12.99 11.117C12.99 12.294 12.103 13.236 10.68 13.236H10.655C9.28499 13.236 8.39999 12.294 8.39999 11.117C8.39999 9.915 9.31199 9 10.708 9C12.103 9 12.963 9.915 12.989 11.117H12.99ZM27.432 20.137V27.165H23.352V20.608C23.352 18.961 22.762 17.837 21.285 17.837C20.158 17.837 19.487 18.594 19.192 19.327C19.084 19.588 19.058 19.954 19.058 20.32V27.165H14.978C14.978 27.165 15.032 16.059 14.978 14.909H19.058V16.645C19.599 15.81 20.569 14.621 22.735 14.621C25.419 14.621 27.432 16.373 27.432 20.137Z" fill="white"/>
</svg>
