<svg width="36" height="36" viewBox="0 0 36 36" fill="none" xmlns="http://www.w3.org/2000/svg">
<path fill-rule="evenodd" clip-rule="evenodd" d="M0 18C0 8.059 8.059 0 18 0C27.941 0 36 8.059 36 18C36 27.941 27.941 36 18 36C8.059 36 0 27.941 0 18Z" fill="#55ACEE"/>
<path fill-rule="evenodd" clip-rule="evenodd" d="M17.46 14.6301L17.499 15.2531L16.869 15.1771C14.578 14.8851 12.576 13.8931 10.876 12.2281L10.045 11.4021L9.831 12.0121C9.378 13.3721 9.667 14.8091 10.611 15.7751C11.115 16.3081 11.001 16.3851 10.133 16.0671C9.831 15.9651 9.567 15.8891 9.541 15.9271C9.453 16.0171 9.755 17.1731 9.995 17.6301C10.322 18.2661 10.989 18.8891 11.72 19.2571L12.337 19.5501L11.607 19.5631C10.901 19.5631 10.876 19.5751 10.952 19.8431C11.203 20.6681 12.198 21.5451 13.306 21.9271L14.086 22.1941L13.406 22.6001C12.3778 23.191 11.2177 23.5146 10.032 23.5411C9.466 23.5541 9 23.6051 9 23.6431C9 23.7701 10.536 24.4821 11.43 24.7611C14.112 25.5881 17.297 25.2311 19.69 23.8211C21.39 22.8171 23.089 20.8211 23.882 18.8891C24.31 17.8591 24.738 15.9781 24.738 15.0761C24.738 14.4911 24.776 14.4151 25.481 13.7161C25.897 13.3091 26.287 12.8641 26.362 12.7361C26.488 12.4961 26.476 12.4961 25.834 12.7111C24.764 13.0931 24.612 13.0411 25.141 12.4701C25.531 12.0631 25.997 11.3261 25.997 11.1101C25.997 11.0721 25.808 11.1351 25.594 11.2501C25.368 11.3771 24.864 11.5671 24.486 11.6821L23.806 11.8981L23.19 11.4781C22.85 11.2491 22.371 10.9951 22.12 10.9191C21.477 10.7411 20.495 10.7661 19.916 10.9691C18.342 11.5421 17.348 13.0161 17.461 14.6311L17.46 14.6301Z" fill="white"/>
</svg>
